<svg xmlns="http://www.w3.org/2000/svg"  viewBox="0 0 50 50" width="50px" height="50px"><path d="M 25 1 C 18.361506 1 12.503491 4.8310871 11.15625 11.146484 C 9.8127143 11.558557 8.8531748 12.867235 9.0175781 14.332031 L 9.3984375 17.699219 C 9.3352179 17.761579 9.2651973 17.819577 9.2109375 17.886719 C 8.8062495 18.387482 8.5778987 18.97871 8.4101562 19.623047 C 8.0746714 20.911721 8 22.461889 8 24 C 8 26.722867 8.9638837 28.57301 10.236328 29.640625 C 11.28641 30.521671 12.451507 30.860679 13.410156 30.957031 L 13.810547 36.742188 L 13.814453 36.779297 C 13.866463 37.142187 13.952519 37.322438 14.085938 37.697266 C 14.219354 38.072093 14.398666 38.542542 14.607422 39.078125 C 15.024933 40.149291 15.565247 41.482433 16.101562 42.787109 C 17.105585 45.229553 17.969512 47.274893 18.091797 47.564453 C 18.340278 48.38682 19.10358 49 20 49 L 30 49 C 30.894913 49 31.656433 48.38863 31.90625 47.568359 C 32.027515 47.282122 32.897048 45.231692 33.904297 42.787109 C 34.44187 41.482425 34.983875 40.149319 35.402344 39.078125 C 35.611578 38.542528 35.788155 38.07214 35.921875 37.697266 C 36.055595 37.322392 36.14317 37.143085 36.195312 36.779297 L 36.199219 36.742188 L 36.599609 30.957031 C 37.557801 30.860755 38.723007 30.521964 39.773438 29.640625 C 41.04627 28.572656 42.009261 26.71985 42 23.996094 C 41.99488 22.460205 41.919141 20.912606 41.585938 19.625 C 41.419336 18.981197 41.194019 18.38989 40.791016 17.888672 C 40.735702 17.819878 40.664358 17.761066 40.599609 17.697266 L 40.980469 14.333984 C 41.146138 12.868925 40.187148 11.55895 38.84375 11.146484 C 37.496509 4.8310871 31.638494 1 25 1 z M 25 3 C 30.683517 3 35.41797 5.9827166 36.763672 11 L 13.236328 11 C 14.58203 5.9827166 19.316483 3 25 3 z M 12.03125 13 L 37.96875 13 C 38.609422 13 39.062032 13.508991 38.994141 14.109375 L 38.414062 19.244141 C 38.360062 19.721125 37.977852 20.093682 37.470703 20.132812 L 37.466797 20.132812 L 28.046875 20.931641 L 27.177734 17.509766 C 26.949966 16.620693 26.135008 16 25.222656 16 L 24.777344 16 C 23.864992 16 23.051981 16.620693 22.824219 17.509766 L 22.822266 17.509766 L 21.953125 20.931641 L 12.533203 20.132812 L 12.529297 20.132812 C 12.022137 20.093678 11.639279 19.719737 11.585938 19.244141 L 11.005859 14.109375 C 10.938439 13.508673 11.390578 13 12.03125 13 z M 24.777344 18 L 25.222656 18 C 25.242306 18 25.239994 18.004859 25.240234 18.005859 L 26.310547 22.224609 L 26.716797 23.990234 L 26.71875 23.998047 L 26.71875 24 L 23.28125 24 L 23.283203 23.990234 L 23.689453 22.222656 L 24.761719 18.005859 L 24.761719 18.003906 C 24.761655 18.0025 24.760315 18 24.777344 18 z M 12 22.0625 C 12.122548 22.087743 12.243994 22.115 12.371094 22.125 L 21.482422 22.898438 L 21.335938 23.533203 L 21.341797 23.513672 C 21.032024 24.752221 22.004546 26 23.28125 26 L 26.71875 26 C 27.995454 26 28.96777 24.753919 28.660156 23.515625 L 28.517578 22.898438 L 37.626953 22.125 C 37.754301 22.11498 37.877246 22.087812 38 22.0625 L 38 23 C 38 23.294842 37.954043 23.416138 37.939453 23.445312 C 37.924863 23.474483 37.946052 23.463625 37.857422 23.515625 C 37.687814 23.615144 37.094973 23.781581 36.332031 24.119141 L 31.351562 25.822266 C 30.546947 26.097856 30 26.863714 30 27.714844 L 30 29.048828 C 28.931672 28.459819 27.34235 28 25 28 C 22.65765 28 21.068328 28.459819 20 29.048828 L 20 27.714844 C 20 26.863714 19.453058 26.097852 18.648438 25.822266 L 18.646484 25.822266 L 13.667969 24.119141 C 12.905027 23.781581 12.312186 23.615144 12.142578 23.515625 C 12.053958 23.463625 12.075137 23.474482 12.060547 23.445312 C 12.046003 23.416136 12 23.294842 12 23 L 12 22.0625 z M 10.025391 23.298828 C 10.050949 23.66965 10.112544 24.022011 10.271484 24.339844 C 10.473457 24.743732 10.811732 25.052984 11.130859 25.240234 C 11.769114 25.614735 12.317816 25.697591 12.931641 25.976562 L 12.974609 25.996094 L 13.068359 26.027344 L 13.267578 28.912109 C 12.710465 28.801287 12.068729 28.568528 11.521484 28.109375 C 10.708179 27.42699 10 26.277133 10 24 C 10 23.75882 10.019929 23.537212 10.025391 23.298828 z M 39.972656 23.314453 C 39.978484 23.549099 39.999209 23.766608 40 24.003906 C 40.0077 26.28015 39.301165 27.427344 38.488281 28.109375 C 37.941321 28.56829 37.299379 28.801208 36.742188 28.912109 L 36.941406 26.025391 L 37.025391 25.996094 L 37.068359 25.976562 C 37.682184 25.697591 38.230886 25.614735 38.869141 25.240234 C 39.188268 25.052984 39.526543 24.743732 39.728516 24.339844 C 39.885196 24.026524 39.946016 23.679259 39.972656 23.314453 z M 34.886719 26.726562 L 34.210938 36.503906 C 34.227018 36.384739 34.158859 36.689568 34.039062 37.025391 C 33.916983 37.367634 33.744157 37.824613 33.539062 38.349609 C 33.128875 39.399603 32.589739 40.726825 32.054688 42.025391 C 32.027144 42.092238 32.027505 42.089589 32 42.15625 L 32 31.25 L 32 27.714844 L 34.886719 26.726562 z M 15.123047 26.730469 L 18 27.714844 L 18 31.25 L 18 31.402344 L 18 32.667969 L 18 42.142578 C 17.975422 42.082863 17.975779 42.085252 17.951172 42.025391 C 17.417364 40.726817 16.879973 39.401584 16.470703 38.351562 C 16.266068 37.826552 16.092539 37.369634 15.970703 37.027344 C 15.851145 36.691454 15.782854 36.385512 15.798828 36.503906 L 15.123047 26.730469 z M 25 30 C 27.472429 30 28.744493 30.55697 29.388672 31.015625 C 29.710761 31.244953 29.882521 31.454601 29.972656 31.587891 C 30.006816 31.638411 29.98989 31.614959 30 31.630859 L 30 32 L 30 46.941406 C 29.999205 46.943281 29.975128 46.998776 29.974609 47 L 20.025391 47 C 20.024873 46.998775 20.000793 46.943282 20 46.941406 L 20 31.630859 C 20.01012 31.614959 19.993204 31.638461 20.027344 31.587891 C 20.117484 31.454601 20.289239 31.244953 20.611328 31.015625 C 21.255511 30.556972 22.527571 30 25 30 z"/></svg>