<svg xmlns="http://www.w3.org/2000/svg"  viewBox="0 0 50 50" width="50px" height="50px"><path d="M 9.0683594 8.0058594 C 8.3095928 7.9919009 7.4847061 8.4287959 7.1503906 9.2441406 L 7.140625 9.2675781 L 2.2558594 23.105469 C 0.97008389 23.440599 0 24.605814 0 25.992188 L 0 31 C 0 32.837145 0.50268367 34.341997 1.4160156 35.396484 C 2.1018896 36.188361 3.0135172 36.695107 4 36.898438 L 4 38 C 4 40.197334 5.8026661 42 8 42 L 42 42 C 44.197334 42 46 40.197334 46 38 L 46 36.898438 C 46.986483 36.695107 47.89811 36.188361 48.583984 35.396484 C 49.497316 34.341997 50 32.837145 50 31 L 50 26 C 50 24.612922 49.032486 23.441657 47.744141 23.105469 L 42.859375 9.2675781 L 42.849609 9.2441406 C 42.515324 8.4287973 41.690407 7.9919009 40.931641 8.0058594 C 40.823245 8.0078534 40.715362 8.0184255 40.611328 8.0390625 C 39.77906 8.2041585 39 8.9988905 39 10.005859 L 39 10.050781 L 39.779297 18.611328 L 37.830078 17.074219 C 36.948378 16.379848 35.858069 16 34.734375 16 L 29.574219 16 C 28.798137 14.239622 27.038549 13 25 13 C 22.961451 13 21.201863 14.239622 20.425781 16 L 15.371094 16 C 14.260121 16 13.180564 16.370681 12.302734 17.054688 L 12.302734 17.052734 L 10.214844 18.677734 L 11 10.050781 L 11 10.005859 C 11 8.9988905 10.22094 8.2041585 9.3886719 8.0390625 C 9.2846383 8.0184255 9.1767546 8.0078534 9.0683594 8.0058594 z M 8.9941406 10.021484 L 8.0527344 20.359375 L 4.6582031 23 L 4.4140625 23 L 8.9941406 10.021484 z M 41.005859 10.021484 L 45.585938 23 L 45.345703 23 L 41.943359 20.316406 L 41.005859 10.021484 z M 25 16 C 26.668699 16 28 17.331301 28 19 C 28 20.668699 26.668699 22 25 22 C 23.331301 22 22 20.668699 22 19 C 22 17.331301 23.331301 16 25 16 z M 15.371094 18 L 20 18 L 20.101562 18 C 20.03516 18.323511 20 18.65763 20 19 C 20 20.127962 20.392756 21.160947 21.029297 22 L 9.2011719 22 L 13.53125 18.632812 L 13.53125 18.630859 C 14.057421 18.220959 14.704066 18 15.371094 18 z M 25 18 A 1 1 0 0 0 24 19 A 1 1 0 0 0 25 20 A 1 1 0 0 0 26 19 A 1 1 0 0 0 25 18 z M 29.898438 18 L 30 18 L 34.734375 18 C 35.408681 18 36.061497 18.226902 36.591797 18.644531 L 40.847656 22 L 28.970703 22 C 29.607244 21.160947 30 20.127962 30 19 C 30 18.65763 29.96484 18.323511 29.898438 18 z M 8.1777344 24 L 41.822266 24 L 27.765625 31 L 22.234375 31 L 8.1777344 24 z M 3 25 L 4.1445312 25 C 4.060166 25.321769 4 25.653001 4 26 L 4 34.822266 C 3.5936567 34.674825 3.2326035 34.439877 2.9277344 34.087891 C 2.3933164 33.470878 2 32.476855 2 31 L 2 25.992188 C 2 25.427157 2.4307466 25 3 25 z M 45.855469 25 L 47 25 C 47.56503 25 48 25.43497 48 26 L 48 31 C 48 32.476855 47.606684 33.470878 47.072266 34.087891 C 46.767396 34.439877 46.406343 34.674825 46 34.822266 L 46 26 C 46 25.653001 45.939834 25.321769 45.855469 25 z M 6.0371094 25.634766 L 16.154297 38.597656 L 16.166016 38.611328 C 16.574001 39.094469 17.339785 39.123106 17.783203 38.679688 L 17.818359 38.646484 L 22.472656 33 L 27.527344 33 L 32.181641 38.646484 L 32.216797 38.679688 C 32.660215 39.123106 33.425999 39.094469 33.833984 38.611328 L 33.845703 38.597656 L 43.962891 25.634766 C 43.984282 25.753447 44 25.874501 44 26 L 44 38 C 44 39.116666 43.116666 40 42 40 L 8 40 C 6.8833339 40 6 39.116666 6 38 L 6 26 C 6 25.874501 6.0157176 25.753447 6.0371094 25.634766 z M 40.414062 26.933594 L 32.974609 36.462891 L 29.570312 32.333984 L 40.414062 26.933594 z M 9.5878906 26.935547 L 20.427734 32.333984 L 17.025391 36.462891 L 9.5878906 26.935547 z"/></svg>