<svg xmlns="http://www.w3.org/2000/svg"  viewBox="0 0 50 50" width="50px" height="50px"><path d="M 24.998047 1 C 18.776748 1.0004569 13.628906 3.0722656 13.628906 3.0722656 A 1.0001 1.0001 0 0 0 13.001953 4 L 13 4 L 13 10.9375 L 12.015625 19.226562 L 12.015625 19.236328 C 11.91701 20.205369 12.312049 21.123001 13 21.746094 L 13 34 C 13 36.116 13.562289 37.014696 14.1875 37.851562 C 17.281312 41.995976 18.485586 45.94318 18.865234 47.486328 C 19.084312 48.377341 19.89893 49 20.804688 49 L 20.804688 48.980469 C 20.869775 48.987046 20.933366 49 21 49 L 29 49 C 29.065974 49 29.1289 48.986918 29.193359 48.980469 L 29.193359 49 C 30.099117 49 30.913398 48.378708 31.132812 47.486328 L 31.132812 47.484375 C 31.512659 45.940859 32.718324 41.995142 35.810547 37.851562 C 36.43546 37.015096 37 36.116333 37 34 L 37 21.746094 C 37.687591 21.12274 38.081905 20.204588 37.984375 19.236328 L 37.984375 19.228516 L 36.998047 10.921875 L 36.998047 4 L 36.996094 4 A 1.0001 1.0001 0 0 0 36.369141 3.0722656 C 36.369094 3.0722625 31.221299 1.0004569 25 1 L 24.998047 1 z M 24.998047 3 L 25 3 C 27.381113 3.0001884 29.499626 3.3472689 31.291016 3.7324219 C 31.166876 3.7563089 31.178402 3.7443982 31.052734 3.7695312 C 29.777591 4.02456 28.432386 4.3421995 27.244141 4.7382812 C 26.341135 5.0392836 25.660356 5.4625975 25 5.9199219 C 24.3394 5.4620933 23.657527 5.0394884 22.753906 4.7382812 C 21.565661 4.3421994 20.220456 4.02456 18.945312 3.7695312 C 18.819646 3.7443978 18.831171 3.7563087 18.707031 3.7324219 C 20.498421 3.3472689 22.616934 3.0001884 24.998047 3 z M 15 5.1386719 C 15.871495 5.2559542 17.06763 5.4330572 18.554688 5.7304688 C 19.779543 5.9754401 21.059339 6.2828006 22.121094 6.6367188 C 23.181701 6.9902546 24.025749 7.4406596 24.291016 7.7050781 L 24.292969 7.7070312 A 1.0001 1.0001 0 0 0 24.998047 8 L 25 8 A 1.0001 1.0001 0 0 0 25.705078 7.7070312 L 25.707031 7.7050781 C 25.972297 7.4406596 26.816346 6.9902545 27.876953 6.6367188 C 28.938708 6.2828006 30.218502 5.97544 31.443359 5.7304688 C 32.930417 5.4330572 34.126552 5.2559542 34.998047 5.1386719 L 34.998047 10.035156 C 30.415137 10.343503 27.198614 12.665213 26.746094 13 L 23.228516 13 C 22.774449 12.662187 19.5774 10.34314 15 10.035156 L 15 5.1386719 z M 17.582031 14.021484 C 19.046875 13.87998 21 14.403906 21 16.097656 C 21 16.443656 20.795906 16.690187 20.503906 16.867188 C 19.574906 17.430188 16 16.085719 16 14.886719 C 16 14.432219 16.703125 14.106387 17.582031 14.021484 z M 31.498047 14.021484 C 32.748047 13.905734 33.998047 14.280719 33.998047 14.886719 C 33.998047 16.085719 30.423141 17.430188 29.494141 16.867188 C 29.203141 16.690188 28.998047 16.443656 28.998047 16.097656 C 28.998047 14.742656 30.248047 14.137234 31.498047 14.021484 z M 24 15 L 26 15 L 26 24 L 24 24 L 24 15 z M 35.685547 16.839844 L 35.994141 19.4375 C 36.042791 19.920493 35.747147 20.358063 35.257812 20.496094 L 30.529297 21.830078 C 30.323677 21.887748 29.873555 21.977661 29.494141 22.398438 C 29.114726 22.819213 29 23.378333 29 24 L 29 27 L 21 27 L 21 24 C 21 23.378333 20.885274 22.819213 20.505859 22.398438 C 20.126445 21.977661 19.676323 21.887746 19.470703 21.830078 L 14.742188 20.496094 C 14.253706 20.358304 13.95838 19.920083 14.005859 19.439453 L 14.3125 16.841797 C 14.904319 17.709433 15.74997 18.438034 16.976562 18.798828 C 17.529563 18.961828 18.066078 19.029297 18.580078 19.029297 C 19.93875 19.029297 21.109089 18.544973 22 18.025391 L 22 24 C 22 25.093063 22.906937 26 24 26 L 26 26 C 27.093063 26 28 25.093063 28 24 L 28 18.029297 C 28.890668 18.548388 30.060409 19.03125 31.417969 19.03125 C 31.932969 19.03125 32.469484 18.963781 33.021484 18.800781 C 34.249638 18.439257 35.093554 17.709078 35.685547 16.839844 z M 15 22.648438 L 18.929688 23.755859 C 18.966414 23.766159 18.959089 23.764021 18.982422 23.771484 C 18.989776 23.819333 19 23.860787 19 24 L 19 28 L 19 29 L 19 42.027344 C 18.234652 40.392109 17.207446 38.551721 15.791016 36.654297 C 15.134227 35.775163 15 35.884 15 34 L 15 22.648438 z M 35 22.648438 L 35 34 C 35 35.883667 34.866072 35.774764 34.208984 36.654297 C 32.793487 38.551063 31.765737 40.390662 31 42.025391 L 31 29 L 31 28 L 31 24 C 31 23.860787 31.010224 23.819334 31.017578 23.771484 C 31.040911 23.76402 31.033586 23.766159 31.070312 23.755859 L 35 22.648438 z M 21 30 L 29 30 L 29 47 L 21 47 L 21 30 z"/></svg>